<!--?xml version="1.0" encoding="utf-8"?-->
<!-- Generator: Adobe Illustrator 18.1.1, SVG Export Plug-In . SVG Version: 6.00 Build 0)  -->

<svg version="1.1" id="_x32_" xmlns="http://www.w3.org/2000/svg" xmlns:xlink="http://www.w3.org/1999/xlink" x="0px" y="0px" viewBox="0 0 512 512" style="width: 64px; height: 64px; opacity: 1;" xml:space="preserve">
<style type="text/css">
	.st0{fill:#4B4B4B;}
</style>
<g>
	<path class="st0" d="M426.49,383.022V8.311c0-2.849-1.436-5.462-3.852-7c-1.352-0.847-2.89-1.302-4.46-1.302
		c-1.208,0-2.385,0.259-3.49,0.775l-72.894,34.072L280.433,6.184l-61.308,28.672l-61.33-28.672L96.486,34.856L23.644,0.774
		C22.529,0.258,21.352,0,20.133,0c-1.569,0-3.118,0.454-4.47,1.311c-2.385,1.538-3.821,4.151-3.821,6.979l0.01,412.635
		c0.01,23.726,8.529,46.018,23.975,62.754c13.422,14.568,31.15,24.222,50.075,27.33v0.815l9.448,0.073l1.414,0.061
		c0.743,0,1.383-0.031,2.921-0.113h318.058c1.156,0.072,2.448,0.154,3.934,0.154c11.058,0,22.188-3.087,32.193-8.92
		c14.093-8.219,25.833-21.487,33.938-38.358c8.198-17.066,12.349-36.704,12.349-58.356v-23.345H426.49z M138.466,406.366
		c0.011,20.712-5.141,39.193-14.516,52.048c-3.934,5.4-8.581,9.726-13.475,12.524c-4.481,2.582-9.096,3.882-13.711,3.882
		c-0.888,0-1.798-0.03-2.757-0.165c-11.378-1.27-22.622-7.145-30.85-16.106c-9.251-10.108-14.156-23.19-14.177-37.841V53.617
		l47.505,22.218l61.309-28.661l61.33,28.661l61.308-28.661l61.361,28.661l47.568-22.218l-0.011,338.966H138.466V406.366z
		 M448.595,458.393c-3.902,5.421-8.528,9.767-13.37,12.586c-4.45,2.571-9.014,3.873-13.547,3.882c-0.733,0-1.476-0.041-2.973-0.154
		H146.158c3.15-4.296,5.968-8.993,8.395-14.011c5.792-11.956,9.427-25.585,10.831-40.536h296.83
		C459.993,439.178,453.634,451.414,448.595,458.393z" style="fill: rgb(75, 75, 75);"></path>
	<rect x="96.083" y="126.727" class="st0" width="248.479" height="88.113" style="fill: rgb(75, 75, 75);"></rect>
	<rect x="96.083" y="265.37" class="st0" width="248.479" height="23.241" style="fill: rgb(75, 75, 75);"></rect>
	<rect x="96.083" y="335.156" class="st0" width="129.02" height="23.23" style="fill: rgb(75, 75, 75);"></rect>
</g>
</svg>
